PathFileType	4	(X/Y/Z)	/Users/niels/Desktop/University/Third Semester/Perception and Action/Exam/Gymnastics Motion Tracking/Code for Gym Tracking/Analyzed Data/Webcam_Backflip/id1_4_baseline_Sports2D/id1_4_baseline_Sports2D_px_person00.trc
DataRate	CameraRate	NumFrames	NumMarkers	Units	OrigDataRate	OrigDataStartFrame	OrigNumFrames
29.87551867219917	29.87551867219917	7	22	m	29.87551867219917	60	241
Frame#	Time	Hip			RHip			RKnee			RAnkle			RBigToe			RSmallToe			RHeel			LHip			LKnee			LAnkle			LBigToe			LSmallToe			LHeel			Neck			Head			Nose			RShoulder			RElbow			RWrist			LShoulder			LElbow			LWrist		
		X1	Y1	Z1	X2	Y2	Z2	X3	Y3	Z3	X4	Y4	Z4	X5	Y5	Z5	X6	Y6	Z6	X7	Y7	Z7	X8	Y8	Z8	X9	Y9	Z9	X10	Y10	Z10	X11	Y11	Z11	X12	Y12	Z12	X13	Y13	Z13	X14	Y14	Z14	X15	Y15	Z15	X16	Y16	Z16	X17	Y17	Z17	X18	Y18	Z18	X19	Y19	Z19	X20	Y20	Z20	X21	Y21	Z21	X22	Y22	Z22
60	2.0083333333333333	0.959036742893779	-0.33924252253367804	0.0	0.963708818125305	-0.34043592810666023	0.0	0.9399255396310106	-0.24262330661815001	0.0	0.9990644468978617	-0.2609661243142602	0.0	1.0013128422818012	-0.23916321039070643	0.0	0.995293246234838	-0.2439141705851076	0.0	1.002156925856635	-0.27035252701615287	0.0	0.9480145719397625	-0.3362305853189525	0.0	0.974778386078191	-0.24587373234706417	0.0	0.9948068532324742	-0.2563901876654702	0.0	0.9904277273005823	-0.237135639087442	0.0	0.9929155597567801	-0.23928552850433335	0.0	1.0012354812213995	-0.26595088792924854	0.0	0.8458825469490464	-0.3325095899353371	0.0	0.790570243215703	-0.32937748407849204	0.0	0.8172294173427969	-0.3086870160461089	0.0	0.8594591408749322	-0.327724910142951	0.0	0.927861696918249	-0.2889082046192611	0.0	0.9497930204246179	-0.22491041385266253	0.0	0.8539764823617635	-0.3281261820190183	0.0	0.9178439866920374	-0.2889079085550517	0.0	0.9424558501017515	-0.2317802258266701	0.0
61	2.0418055555555554	0.9598134435956905	-0.3172351198103394	0.0	0.9646802434484926	-0.3188211462572197	0.0	0.9082372874514997	-0.23052767368510296	0.0	0.9697313842804407	-0.2205030753471107	0.0	0.9652152145222941	-0.19424686189062904	0.0	0.9544008429601345	-0.1965049401440737	0.0	0.9738004204096203	-0.22573591787191033	0.0	0.9481470676983357	-0.3157125055282244	0.0	0.948203890393995	-0.23411758775526895	0.0	0.9664218801348332	-0.21667484538575404	0.0	0.9575507500775988	-0.1919939272002833	0.0	0.9585547150412931	-0.19316950109081768	0.0	0.9748133680758816	-0.2217284368060152	0.0	0.8617898773102738	-0.34892642263893026	0.0	0.8164726555876584	-0.36379418699615107	0.0	0.832899119290241	-0.33968132142784113	0.0	0.8733821354101174	-0.33939056397983247	0.0	0.9348229477432289	-0.2923808508467597	0.0	0.9485008894908409	-0.22686227903013453	0.0	0.868426065750859	-0.33985760233384577	0.0	0.9244803477415637	-0.29419996877757204	0.0	0.942281325684592	-0.23353620180825294	0.0
62	2.075277777777778	0.9577832536384766	-0.2966203993453534	0.0	0.9626966973135047	-0.2989177998263804	0.0	0.8794941497570041	-0.22832377640699844	0.0	0.939206562654217	-0.1920441075987592	0.0	0.9289056651358196	-0.16430598475998248	0.0	0.9144240608003761	-0.16382481668727947	0.0	0.9444741685253208	-0.19252208535888912	0.0	0.9474885211471927	-0.2965517515544835	0.0	0.9171820373073659	-0.23113782622711831	0.0	0.9373222148121626	-0.1883756095691256	0.0	0.9256997541141886	-0.16106755817197627	0.0	0.9249256060217667	-0.16137785536336832	0.0	0.9479324031855297	-0.18844524894954578	0.0	0.8836598226484353	-0.36591825254819244	0.0	0.8515589074903309	-0.39846395582674854	0.0	0.8562765519241801	-0.3727896639182169	0.0	0.8920582336802422	-0.3512807808023882	0.0	0.940475248929828	-0.29264167121924445	0.0	0.9426665581802378	-0.22546734619815537	0.0	0.8881844967069834	-0.3517514453623013	0.0	0.9312557892901037	-0.296211316823982	0.0	0.93878174318213	-0.23250616095418217	0.0
63	2.10875	0.953118823129832	-0.2788232603361912	0.0	0.9577586925956758	-0.2818577254733229	0.0	0.8555256770302099	-0.23431558480056808	0.0	0.9076474757416133	-0.17558943641993657	0.0	0.892107851787462	-0.14906521222717875	0.0	0.8769295538393859	-0.14633568938208683	0.0	0.9139664425474484	-0.1709146287090328	0.0	0.9459661561386323	-0.280062922902317	0.0	0.8860060862130051	-0.23559324949260757	0.0	0.9081497248717143	-0.17138149444146972	0.0	0.8942128684698871	-0.14489578851602003	0.0	0.8914980331639606	-0.14449032153731514	0.0	0.921058188459689	-0.16645899717486257	0.0	0.9092281277390454	-0.38063003458689126	0.0	0.8925372719037565	-0.4286393671859989	0.0	0.8855568520153141	-0.403491218507217	0.0	0.9135447372678209	-0.3612126674000349	0.0	0.9445397892358657	-0.2905575817831923	0.0	0.9333722502756862	-0.22265234219815094	0.0	0.9113391231187542	-0.3621940192698252	0.0	0.9379636042504751	-0.2957554163785555	0.0	0.9333236144992565	-0.2312649537093287	0.0
64	2.1422222222222222	0.94631232634597	-0.26551273625380295	0.0	0.950235662792371	-0.26900897079833846	0.0	0.8376870404758177	-0.2475353250018009	0.0	0.8738084419747835	-0.17246768843690094	0.0	0.8532425226779369	-0.15039258801462305	0.0	0.8410303973827891	-0.14633595548493558	0.0	0.880249001866561	-0.1623871192608973	0.0	0.9434263177621443	-0.2677318022582021	0.0	0.8600196761218828	-0.24692723800127275	0.0	0.8780929892455994	-0.16642660127129266	0.0	0.8611300006009293	-0.14602516338070007	0.0	0.8563973200927113	-0.1443275058311238	0.0	0.8924175124182279	-0.15685242968556512	0.0	0.9359309367636469	-0.39079818533391986	0.0	0.9357039887281459	-0.45047782035465644	0.0	0.9184430414756191	-0.4278821824899573	0.0	0.9356650053268292	-0.3675734768010283	0.0	0.9465909303331247	-0.2876502803862461	0.0	0.9213029797819066	-0.22122539745867223	0.0	0.9356882475462611	-0.36990956079593007	0.0	0.9440725776172274	-0.29427443209007925	0.0	0.9268428891975282	-0.2328045940053054	0.0
65	2.1756944444444444	0.9381098478730048	-0.2580542277650672	0.0	0.9408847781701439	-0.2616593924147759	0.0	0.826644272367524	-0.267183236756493	0.0	0.8376340753666505	-0.18519715819481977	0.0	0.8131561951566839	-0.17198668753819193	0.0	0.8060827130363768	-0.16747590837111384	0.0	0.8425758647551836	-0.1697523877615555	0.0	0.9398209831568967	-0.26058847387837514	0.0	0.8428816389428769	-0.26455996354978767	0.0	0.8469064469274961	-0.17457126588820224	0.0	0.826475100140097	-0.1680438677356312	0.0	0.82005868985592	-0.1626967442234776	0.0	0.8603440995564274	-0.16109333023831435	0.0	0.9614172881484722	-0.3955207681202447	0.0	0.9776078792906322	-0.4622438277917924	0.0	0.9522610823362948	-0.44386447780528887	0.0	0.956467126822383	-0.37000250293592535	0.0	0.9463429995656399	-0.2857940394250655	0.0	0.907121971149868	-0.2241221181292409	0.0	0.959161851244945	-0.374232224978449	0.0	0.9490170738463293	-0.29335271169334276	0.0	0.919942442032605	-0.2393752755812342	0.0
66	2.2091666666666665	0.9292637985004395	-0.25698374120088235	0.0	0.9306443761434912	-0.2605183344451313	0.0	0.8220028310154256	-0.29200625574045114	0.0	0.8018861144479806	-0.21568455585879007	0.0	0.7765319530070101	-0.21631601272134982	0.0	0.7737631694029732	-0.2117590206895691	0.0	0.8034170832064368	-0.1956015144912132	0.0	0.9350697138199574	-0.2589037115975913	0.0	0.8349479223801796	-0.2873191463561088	0.0	0.8161090450765451	-0.19594315928292091	0.0	0.7933344802418835	-0.2125884644522803	0.0	0.7864339437512929	-0.1991653540756676	0.0	0.8251664581993582	-0.18013008155812152	0.0	0.9837929404165446	-0.39553722568943606	0.0	1.0152818775580732	-0.4648023611969065	0.0	0.9840648829611903	-0.4515676727184684	0.0	0.9744816888363274	-0.36952164809603594	0.0	0.9439753764076287	-0.2870043889026257	0.0	0.8919956240184659	-0.23387408476222488	0.0	0.9800028530621478	-0.3752979418469445	0.0	0.9523936072224563	-0.29442959374432826	0.0	0.9130166857105319	-0.2518134131332498	0.0
